<svg width="24" height="24" viewBox="0 0 24 24" fill="none" xmlns="http://www.w3.org/2000/svg">
<path d="M14.2511 17.502V22.0038L12.0002 20.8784L9.74927 22.0038V17.502" stroke="#0335D6" stroke-width="2" stroke-linecap="round" stroke-linejoin="round"/>
<path fill-rule="evenodd" clip-rule="evenodd" d="M8.21857 14.8382L8.75079 15.5385L8.86584 16.4039C8.92979 16.8838 9.30733 17.2613 9.78722 17.3252L10.6546 17.4413L11.3489 17.9725C11.7332 18.2647 12.2651 18.2647 12.6494 17.9725L13.3497 17.4413V17.4413L14.2161 17.3252C14.6962 17.2614 15.0741 16.8839 15.1385 16.4039L15.2545 15.5365C15.2545 15.5365 15.5226 15.1854 15.7857 14.8422C16.0779 14.4579 16.0779 13.926 15.7857 13.5417L15.2545 12.8414L15.1385 11.976C15.075 11.4961 14.6979 11.1181 14.2181 11.0536L13.3497 10.9386L12.6494 10.4084C12.2655 10.1152 11.7328 10.1152 11.3489 10.4084L10.6486 10.9386V10.9386L9.78222 11.0536C9.30217 11.1173 8.92446 11.495 8.86084 11.975L8.74479 12.8424L8.21357 13.5367C7.92306 13.9225 7.9251 14.4546 8.21857 14.8382V14.8382Z" stroke="#0335D6" stroke-width="2" stroke-linecap="round" stroke-linejoin="round"/>
<path d="M17.0022 19.0033H19.003C20.108 19.0033 21.0038 18.1075 21.0038 17.0024V5.59068C21.0038 4.48565 20.108 3.58984 19.003 3.58984H4.99717C3.89214 3.58984 2.99634 4.48565 2.99634 5.59068V17.0024C2.99634 18.1075 3.89214 19.0033 4.99717 19.0033H6.998" stroke="#0335D6" stroke-width="2" stroke-linecap="round" stroke-linejoin="round"/>
<path d="M7.49829 6.99826H16.502" stroke="#0335D6" stroke-width="2" stroke-linecap="round" stroke-linejoin="round"/>
</svg>
